<svg width="100%" height="100%" viewBox="0 0 39 39" fill="currentcolor" xmlns="http://www.w3.org/2000/svg">
<g clip-path="url(#clip0_67_242)">
<path d="M19.0471 0.525391C8.52751 0.525391 -0.000488281 9.05339 -0.000488281 19.573C-0.000488281 28.5056 6.14961 36.0012 14.446 38.0599V25.394H10.5184V19.573H14.446V17.0648C14.446 10.5818 17.3801 7.57682 23.745 7.57682C24.9519 7.57682 27.0342 7.81377 27.886 8.04996V13.3262C27.4365 13.2789 26.6555 13.2553 25.6856 13.2553C22.5626 13.2553 21.3557 14.4385 21.3557 17.5143V19.573H27.5774L26.5085 25.394H21.3557V38.4812C30.7873 37.3422 38.0955 29.3117 38.0955 19.573C38.0948 9.05339 29.5668 0.525391 19.0471 0.525391Z" fill="#08873B"/>
</g>
<defs>
<clipPath id="clip0_67_242">
<rect width="38.0952" height="38.0952" fill="white" transform="translate(-0.000488281 0.525391)"/>
</clipPath>
</defs>
</svg>
