<svg width="100%" height="100%" viewBox="0 0 43 43" fill="none" xmlns="http://www.w3.org/2000/svg">
<circle cx="20.9524" cy="20.9524" r="20.5621" transform="matrix(1 0 0 -1 0.189941 42.0977)" stroke="#08873B" stroke-width="0.78064"/>
<g clip-path="url(#clip0_67_234)">
<path d="M15.4809 18.9533C15.8334 19.387 15.9314 20.3828 15.9395 21.2788C15.952 22.4334 15.7831 23.5869 15.3988 24.6748C15.1106 25.4905 14.6895 26.391 14.1307 26.8451M14.1307 26.8451C14.6895 26.391 15.6576 26.1622 16.5143 26.0472C17.6583 25.8938 18.822 25.9642 19.9487 26.2111C20.8247 26.4027 21.7804 26.7033 22.132 27.1358M14.1307 26.8451L28.1578 15.4433" stroke="#08873B" stroke-width="0.78064"/>
</g>
<defs>
<clipPath id="clip0_67_234">
<rect width="18.0766" height="18.0766" fill="white" transform="matrix(0.630753 0.775983 0.775983 -0.630753 8.42627 19.832)"/>
</clipPath>
</defs>
</svg>
