<svg width="100%" height="100%" viewBox="0 0 39 39" fill="currentcolor" xmlns="http://www.w3.org/2000/svg">
<g clip-path="url(#clip0_67_241)">
<path d="M19.4309 3.95545C24.5202 3.95545 25.1229 3.97777 27.1244 4.06706C28.9845 4.1489 29.989 4.4614 30.6586 4.72182C31.544 5.06408 32.1839 5.48075 32.8461 6.14295C33.5157 6.81259 33.925 7.44503 34.2672 8.33045C34.5277 9.00009 34.8402 10.012 34.922 11.8647C35.0113 13.8736 35.0336 14.4763 35.0336 19.5581C35.0336 24.6474 35.0113 25.2501 34.922 27.2516C34.8402 29.1117 34.5277 30.1162 34.2672 30.7858C33.925 31.6712 33.5083 32.3111 32.8461 32.9733C32.1765 33.643 31.544 34.0522 30.6586 34.3944C29.989 34.6549 28.9771 34.9674 27.1244 35.0492C25.1154 35.1385 24.5128 35.1608 19.4309 35.1608C14.3416 35.1608 13.739 35.1385 11.7375 35.0492C9.87735 34.9674 8.87289 34.6549 8.20324 34.3944C7.31783 34.0522 6.67794 33.6355 6.01574 32.9733C5.3461 32.3037 4.93687 31.6712 4.59461 30.7858C4.33419 30.1162 4.02169 29.1043 3.93985 27.2516C3.85056 25.2427 3.82824 24.64 3.82824 19.5581C3.82824 14.4688 3.85056 13.8662 3.93985 11.8647C4.02169 10.0046 4.33419 9.00009 4.59461 8.33045C4.93687 7.44503 5.35354 6.80515 6.01574 6.14295C6.68538 5.47331 7.31783 5.06408 8.20324 4.72182C8.87289 4.4614 9.88479 4.1489 11.7375 4.06706C13.739 3.97777 14.3416 3.95545 19.4309 3.95545ZM19.4309 0.525391C14.2598 0.525391 13.6125 0.547712 11.5812 0.636998C9.55741 0.726284 8.16604 1.05366 6.96068 1.52241C5.70324 2.01349 4.63925 2.66081 3.58271 3.7248C2.51872 4.78134 1.8714 5.84533 1.38032 7.09533C0.911575 8.30813 0.584194 9.69206 0.494908 11.7159C0.405622 13.7546 0.383301 14.4019 0.383301 19.573C0.383301 24.7441 0.405622 25.3915 0.494908 27.4227C0.584194 29.4465 0.911575 30.8379 1.38032 32.0433C1.8714 33.3007 2.51872 34.3647 3.58271 35.4212C4.63925 36.4778 5.70324 37.1325 6.95324 37.6162C8.16604 38.0849 9.54997 38.4123 11.5738 38.5016C13.605 38.5909 14.2523 38.6132 19.4235 38.6132C24.5946 38.6132 25.2419 38.5909 27.2732 38.5016C29.297 38.4123 30.6884 38.0849 31.8937 37.6162C33.1437 37.1325 34.2077 36.4778 35.2643 35.4212C36.3208 34.3647 36.9756 33.3007 37.4592 32.0507C37.9279 30.8379 38.2553 29.454 38.3446 27.4302C38.4339 25.3989 38.4562 24.7516 38.4562 19.5805C38.4562 14.4093 38.4339 13.762 38.3446 11.7307C38.2553 9.70694 37.9279 8.31557 37.4592 7.11021C36.9904 5.84533 36.3431 4.78134 35.2791 3.7248C34.2226 2.66825 33.1586 2.01349 31.9086 1.52986C30.6958 1.0611 29.3119 0.733724 27.2881 0.644438C25.2494 0.547712 24.6021 0.525391 19.4309 0.525391Z" fill="#08873B"/>
<path d="M19.4307 9.78906C14.0289 9.78906 9.64648 14.1715 9.64648 19.5733C9.64648 24.9751 14.0289 29.3575 19.4307 29.3575C24.8325 29.3575 29.2149 24.9751 29.2149 19.5733C29.2149 14.1715 24.8325 9.78906 19.4307 9.78906ZM19.4307 25.92C15.9262 25.92 13.084 23.0778 13.084 19.5733C13.084 16.0688 15.9262 13.2266 19.4307 13.2266C22.9352 13.2266 25.7774 16.0688 25.7774 19.5733C25.7774 23.0778 22.9352 25.92 19.4307 25.92Z" fill="#08873B"/>
<path d="M31.8863 9.40142C31.8863 10.6663 30.8595 11.6856 29.6021 11.6856C28.3372 11.6856 27.3179 10.6589 27.3179 9.40142C27.3179 8.13653 28.3447 7.11719 29.6021 7.11719C30.8595 7.11719 31.8863 8.14397 31.8863 9.40142Z" fill="#08873B"/>
</g>
<defs>
<clipPath id="clip0_67_241">
<rect width="38.0952" height="38.0952" fill="white" transform="translate(0.383301 0.525391)"/>
</clipPath>
</defs>
</svg>
